#!OML:ASF H:\BabyWalks\Project 1\Capture day 1\Session 1\baby.ASF
:FULLY-SPECIFIED
:DEGREES
799
root 41.8013 17.2493 0.204694 -149.859 77.882 -152.54
lowerback 18.9711 2.95047 5.51442
upperback 5.83638 5.27274 -0.398451
thorax -3.75198 2.79245 -4.67851
lowerneck 5.12634 15.092 12.192
upperneck -4.73571 20.5003 -13.9865
head 0.493297 10.458 -5.787
rclavicle 2.21645e-014 -9.34288e-015
rhumerus -40.1853 4.62346 -83.1392
rradius 47.6332
rwrist 0.498375
rhand -9.48108 -16.5062
rfingers 7.12502
rthumb 16.4833 -45.826
lclavicle 2.21645e-014 -9.34288e-015
lhumerus -38.3223 -10.2858 74.4467
lradius 44.3323
lwrist -3.35196
lhand 2.48564 9.65536
lfingers 7.12502
lthumb 27.9689 37.5918
rfemur 2.93956 6.85433 29.5916
rtibia 19.4199
rfoot -23.4564 -1.1244
rtoes 1.64397
lfemur -28.2126 -6.42205 -13.8326
ltibia 39.4607
lfoot -17.9909 -14.7198
ltoes 7.90587
800
root 41.8025 17.2471 0.206921 -150.378 77.8036 -152.98
lowerback 18.9264 3.04755 5.56244
upperback 5.79987 5.40156 -0.458956
thorax -3.74184 2.8552 -4.79314
lowerneck 5.18859 15.3381 12.3177
upperneck -4.66244 20.8484 -14.0208
head 0.565578 10.6317 -5.78584
rclavicle -1.45113e-014 -8.34896e-015
rhumerus -40.4021 4.39362 -83.2526
rradius 47.4212
rwrist 0.818394
rhand -9.37081 -16.4897
rfingers 7.12502
rthumb 16.5895 -45.8007
lclavicle -1.45113e-014 -8.34896e-015
lhumerus -38.1583 -10.2435 74.256
lradius 44.4886
lwrist -3.19605
lhand 2.29675 9.61549
lfingers 7.12502
lthumb 27.7884 37.5812
rfemur 3.11081 7.06471 29.6573
rtibia 19.2978
rfoot -23.5192 -1.54038
rtoes 1.81761
lfemur -28.1238 -6.51618 -13.8829
ltibia 39.436
lfoot -18.0138 -14.7529
ltoes 7.91914
801
root 41.8033 17.2447 0.209167 -150.901 77.7165 -153.425
lowerback 18.8775 3.14526 5.61853
upperback 5.76461 5.53273 -0.516745
thorax -3.72685 2.91942 -4.90916
lowerneck 5.25239 15.588 12.4561
upperneck -4.57963 21.2036 -14.0859
head 0.646709 10.8095 -5.79255
rclavicle 9.57148e-014 -8.94531e-015
rhumerus -40.609 4.15663 -83.3542
rradius 47.202
rwrist 1.13699
rhand -9.27081 -16.4774
rfingers 7.12502
rthumb 16.6857 -45.7803
lclavicle 9.57148e-014 -8.94531e-015
lhumerus -37.9825 -10.2199 74.0898
lradius 44.6841
lwrist -3.01963
lhand 2.07868 9.55569
lfingers 7.12502
lthumb 27.5798 37.5549
rfemur 3.28648 7.26123 29.7243
rtibia 19.1728
rfoot -23.5749 -1.95057
rtoes 1.96377
lfemur -28.0414 -6.61587 -13.9337
ltibia 39.4237
lfoot -18.038 -14.7841
ltoes 7.92318
802
root 41.8037 17.241 0.211453 -151.418 77.6163 -153.86
lowerback 18.8256 3.24171 5.68662
upperback 5.72828 5.66452 -0.570589
thorax -3.71001 2.98401 -5.02734
lowerneck 5.30461 15.84 12.5917
upperneck -4.4756 21.5623 -14.1584
head 0.737583 10.9887 -5.79727
rclavicle 1.21756e-014 9.54166e-015
rhumerus -40.8088 3.91766 -83.4441
rradius 46.9784
rwrist 1.45329
rhand -9.17854 -16.4699
rfingers 7.12502
rthumb 16.7746 -45.7652
lclavicle 1.21756e-014 9.54166e-015
lhumerus -37.7985 -10.2192 73.9494
lradius 44.9146
lwrist -2.82371
lhand 1.83565 9.47851
lfingers 7.12502
lthumb 27.3474 37.5146
rfemur 3.48391 7.43644 29.7966
rtibia 19.0257
rfoot -23.6115 -2.347
rtoes 2.09321
lfemur -27.9747 -6.71912 -13.9808
ltibia 39.4371
lfoot -18.0693 -14.817
ltoes 7.91517
803
root 41.8037 17.2361 0.213757 -151.925 77.5011 -154.282
lowerback 18.7748 3.33729 5.77093
upperback 5.68971 5.79843 -0.62099
thorax -3.69397 3.04957 -5.15124
lowerneck 5.35757 16.0884 12.7253
upperneck -4.3618 21.9171 -14.2345
head 0.831604 11.1659 -5.80141
rclavicle -5.25785e-014 9.54166e-015
rhumerus -41.0042 3.67562 -83.5228
rradius 46.7526
rwrist 1.75726
rhand -9.08974 -16.4648
rfingers 7.12502
rthumb 16.8601 -45.7529
lclavicle -5.25785e-014 9.54166e-015
lhumerus -37.6066 -10.2488 73.8363
lradius 45.1776
lwrist -2.61207
lhand 1.57106 9.39089
lfingers 7.12502
lthumb 27.0943 37.4666
rfemur 3.70185 7.58636 29.874
rtibia 18.852
rfoot -23.6258 -2.72755
rtoes 2.19443
lfemur -27.9221 -6.82721 -14.023
ltibia 39.4756
lfoot -18.1083 -14.8511
ltoes 7.89203
